<svg width="33" height="26" viewBox="0 0 33 26" fill="none" xmlns="http://www.w3.org/2000/svg">
<g filter="url(#filter0_i_1_10)">
<path d="M13.3564 0H23.3984C25.0623 0 26.7737 1.29336 27.2212 2.88889L29.9216 12.5185H16.8671L13.3564 0Z" fill="url(#paint0_linear_1_10)"/>
<path d="M30.1917 13.4815L32.8922 23.1111C33.3396 24.7066 32.3536 26 30.6897 26H20.6478L17.1371 13.4815H30.1917Z" fill="url(#paint1_linear_1_10)"/>
<path d="M19.6436 26H9.60158C7.93777 26 6.22628 24.7066 5.77883 23.1111L3.07835 13.4815H16.1329L19.6436 26Z" fill="url(#paint2_linear_1_10)"/>
<path d="M2.8083 12.5185L0.107811 2.88889C-0.339633 1.29336 0.646453 0 2.31026 0H12.3522L15.8629 12.5185H2.8083Z" fill="url(#paint3_linear_1_10)"/>
</g>
<defs>
<filter id="filter0_i_1_10" x="0" y="-4" width="33" height="30" filterUnits="userSpaceOnUse" color-interpolation-filters="sRGB">
<feFlood flood-opacity="0" result="BackgroundImageFix"/>
<feBlend mode="normal" in="SourceGraphic" in2="BackgroundImageFix" result="shape"/>
<feColorMatrix in="SourceAlpha" type="matrix" values="0 0 0 0 0 0 0 0 0 0 0 0 0 0 0 0 0 0 127 0" result="hardAlpha"/>
<feOffset dy="-4"/>
<feGaussianBlur stdDeviation="5"/>
<feComposite in2="hardAlpha" operator="arithmetic" k2="-1" k3="1"/>
<feColorMatrix type="matrix" values="0 0 0 0 0 0 0 0 0 0.299347 0 0 0 0 0.528846 0 0 0 0.3 0"/>
<feBlend mode="normal" in2="shape" result="effect1_innerShadow_1_10"/>
</filter>
<linearGradient id="paint0_linear_1_10" x1="16" y1="21" x2="30.5" y2="-6.5" gradientUnits="userSpaceOnUse">
<stop stop-color="#0078D4"/>
<stop offset="1" stop-color="#51B3FF"/>
</linearGradient>
<linearGradient id="paint1_linear_1_10" x1="16" y1="21" x2="30.5" y2="-6.5" gradientUnits="userSpaceOnUse">
<stop stop-color="#0078D4"/>
<stop offset="1" stop-color="#51B3FF"/>
</linearGradient>
<linearGradient id="paint2_linear_1_10" x1="16" y1="21" x2="30.5" y2="-6.5" gradientUnits="userSpaceOnUse">
<stop stop-color="#0078D4"/>
<stop offset="1" stop-color="#51B3FF"/>
</linearGradient>
<linearGradient id="paint3_linear_1_10" x1="16" y1="21" x2="30.5" y2="-6.5" gradientUnits="userSpaceOnUse">
<stop stop-color="#0078D4"/>
<stop offset="1" stop-color="#51B3FF"/>
</linearGradient>
</defs>
</svg>
