<svg width="14" height="17" viewBox="0 0 14 17" fill="none" xmlns="http://www.w3.org/2000/svg">
<path d="M7.24121 9.5C9.44766 9.5 11.0492 9.60435 12.1377 9.71777C13.2397 9.83261 14 10.805 14 11.9521V12.5C14 14 12.6481 17 7.24121 17C7.16 17 7.0796 16.9994 7 16.998C6.9204 16.9994 6.84 17 6.75879 17C1.35189 17 0 14 0 12.5V11.9521C0 10.805 0.760257 9.83261 1.8623 9.71777C2.95079 9.60435 4.55234 9.5 6.75879 9.5H7.24121Z" fill="black"/>
<path d="M7 0C9.13296 0 11.1035 1.79086 11.1035 4C11.1035 6.20914 9.13296 8 7 8C4.86704 8 2.89648 6.20914 2.89648 4C2.89648 1.79086 4.86704 0 7 0Z" fill="black"/>
</svg>
