<svg width="37" height="30" viewBox="0 0 37 30" fill="none" xmlns="http://www.w3.org/2000/svg">
<rect x="7.00034" y="6" width="22" height="17" fill="white"/>
<path d="M26.234 0C28.0993 4.10641e-05 30.0183 1.49232 30.5202 3.33301L36.8786 26.667C37.3641 28.4502 36.3421 29.907 34.5817 29.9961L34.4098 30H10.7653L10.5905 29.9961C8.83982 29.9097 7.08198 28.5423 6.52992 26.8379L6.47914 26.667L0.120743 3.33301C-0.364942 1.54984 0.657492 0.0932646 2.41762 0.00390625L2.59047 0H26.234ZM15.1764 8.41406L17.1764 10.4141H22.1764V18L19.8834 15.707L18.4694 17.1211L23.1764 21.8281L27.8834 17.1211L26.4694 15.707L24.1764 18V8.41406H15.1764ZM8.46938 12.707L9.88344 14.1211L12.1764 11.8281V21.4141H21.1764L19.1764 19.4141H14.1764V11.8281L16.4694 14.1211L17.8834 12.707L13.1764 8L8.46938 12.707Z" fill="url(#paint0_linear_167_577)"/>
<defs>
<linearGradient id="paint0_linear_167_577" x1="7.4997" y1="6.5" x2="38.9997" y2="39" gradientUnits="userSpaceOnUse">
<stop stop-color="#00C853"/>
<stop offset="1" stop-color="#24FA7C"/>
</linearGradient>
</defs>
</svg>
